# xmcd CD database file generated by OrangeCD 6.1
#
# Track frame offsets:
#	150
#	13752
#	39984
#	56760
#	70527
#	91090
#	111632
#	121438
#
# Disc length: 1988 seconds
#
# Revision: 2
# Processed by: cddbd v1.5.2PL0 Copyright (c) Steve Scherf et al.
# Submitted via: OrangeCD 6.1
#
DISCID=6607c208
DTITLE=Jack L - Sunday Independent
DYEAR=2004
DGENRE=Blues
TTITLE0=Sungod
TTITLE1=Jacky
TTITLE2=Happiness
TTITLE3=Can't Get You Out Of My Head
TTITLE4=Hallelujah
TTITLE5=Georgie Boy
TTITLE6=Chasing Dreams
TTITLE7=When The Moon Is High
EXTD=
EXTT0=
EXTT1=
EXTT2=
EXTT3=
EXTT4=
EXTT5=
EXTT6=
EXTT7=
PLAYORDER=
